<?xml version="1.0" encoding="UTF-8"?>
<svg xmlns="http://www.w3.org/2000/svg" xmlns:xlink="http://www.w3.org/1999/xlink" width="142px" height="124px" viewBox="0 0 142 124" version="1.1">
<g id="surface1">
<path style=" stroke:none;fill-rule:nonzero;fill:rgb(0%,0%,0%);fill-opacity:1;" d="M 0.046875 88.789062 L 0.046875 124 L 53.421875 124 L 53.421875 116.191406 L 7.824219 116.191406 L 7.824219 88.789062 Z M 134.175781 88.789062 L 134.175781 116.191406 L 88.578125 116.191406 L 88.578125 124 L 141.953125 124 L 141.953125 88.789062 Z M 53.5 35.210938 L 53.5 88.789062 L 88.578125 88.789062 L 88.578125 81.746094 L 61.277344 81.746094 L 61.277344 35.210938 Z M 0.046875 0 L 0.046875 35.210938 L 7.824219 35.210938 L 7.824219 7.804688 L 53.421875 7.804688 L 53.421875 0 Z M 88.578125 0 L 88.578125 7.804688 L 134.175781 7.804688 L 134.175781 35.210938 L 141.953125 35.210938 L 141.953125 0 Z M 88.578125 0 "/>
</g>
</svg>
